<?xml version="1.0" standalone="no"?>
<!DOCTYPE svg PUBLIC "-//W3C//DTD SVG 20010904//EN"
 "http://www.w3.org/TR/2001/REC-SVG-20010904/DTD/svg10.dtd">
<svg version="1.0" xmlns="http://www.w3.org/2000/svg"
 width="222.000000pt" height="216.000000pt" viewBox="0 0 222.000000 216.000000"
 preserveAspectRatio="xMidYMid meet">
  <title>csi-button</title>
<g id="csi-button" transform="translate(0.000000,216.000000) scale(0.100000,-0.100000)"
fill="#000000" stroke="none" fill-opacity="0">
<path fill="#FFFFFF" fill-opacity="1" d="M0 1080 l0 -1080 1110 0 1110 0 0 1080 0 1080 -1110 0 -1110 0 0
-1080z m1547 989 c107 -54 138 -119 90 -190 -30 -44 -66 -69 -293 -204 -324
-191 -577 -369 -706 -495 -72 -70 -82 -96 -53 -137 8 -11 122 -109 254 -217
132 -108 250 -210 262 -228 47 -65 23 -130 -63 -172 -142 -69 -248 -53 -431
67 -244 160 -500 394 -561 515 -44 86 -26 202 46 294 140 179 486 467 742 617
236 138 398 192 558 187 77 -2 95 -6 155 -37z m346 -293 c80 -33 140 -127 141
-222 1 -92 -20 -117 -256 -294 -204 -154 -258 -198 -258 -211 0 -4 44 -45 98
-91 119 -104 238 -223 263 -263 28 -44 25 -111 -7 -156 -51 -74 -216 -187
-416 -284 -132 -65 -197 -85 -268 -85 -105 0 -200 45 -200 95 0 30 21 45 218
165 118 72 152 98 152 114 0 15 -20 33 -71 65 -265 163 -461 361 -461 465 0
121 194 289 667 576 94 57 190 111 215 121 54 22 139 24 183 5z m110 -505 c39
-15 65 -49 118 -154 42 -85 49 -107 49 -158 0 -74 -32 -160 -71 -194 -46 -38
-86 -33 -160 18 -113 77 -165 189 -140 302 16 72 66 143 121 172 49 26 50 26
83 14z"/>
<path fill="#FFFFFF" fill-opacity="1" d="M445 1618 c-183 -153 -385 -367 -385 -409 0 -4 35 -26 78 -49 43 -23
134 -81 202 -130 321 -229 497 -334 670 -400 68 -26 77 -35 -192 184 -120 98
-229 191 -243 208 -40 48 -34 89 23 150 58 62 157 144 280 231 l93 66 -88 57
c-163 106 -295 184 -312 184 -9 -1 -65 -42 -126 -92z"/>
<path fill="#FFFFFF" fill-opacity="1" d="M1799 1355 c-163 -83 -221 -99 -319 -92 -83 6 -165 31 -282 84 l-77
35 -63 -50 c-82 -65 -185 -173 -198 -207 -5 -14 -10 -37 -10 -51 0 -93 186
-277 448 -443 54 -35 84 -61 88 -76 5 -20 14 -25 61 -31 97 -12 316 16 401 51
27 12 32 19 32 48 0 55 -75 140 -297 336 -46 40 -83 81 -83 90 0 25 43 62 259
225 106 80 187 146 180 145 -8 0 -71 -29 -140 -64z"/>
</g>
</svg>
